<svg width="1294" height="754" viewBox="0 0 1294 754" fill="none" xmlns="http://www.w3.org/2000/svg">
<g filter="url(#filter0_d_48_3)">
<mask id="mask0_48_3" style="mask-type:luminance" maskUnits="userSpaceOnUse" x="4" y="0" width="1287" height="746">
<path d="M1290.04 0H4V745.63H1290.04V0Z" fill="white"/>
</mask>
<g mask="url(#mask0_48_3)">
<path d="M1222.18 449.458C1176.73 567.138 1091.28 670.238 972.59 715.548C957.153 721.432 941.39 726.424 925.38 730.498C840.7 752.088 748.06 744.578 670 705.238C636.87 688.528 606.66 666.448 573.41 649.978C540.16 633.508 502.19 622.728 466 630.858C434.84 637.858 408.55 657.918 382.08 675.788C319.68 717.918 244.65 751.258 170.76 736.788C136.76 730.138 103.28 711.718 87.49 680.928C52.59 612.858 118.41 531.928 105.08 456.648C96.55 408.468 57.59 372.388 33.37 329.868C-8.08002 257.138 -3.18005 160.528 45.42 92.3783C94.02 24.2283 183.74 -11.9217 266 3.5383C366.31 22.3983 442.15 107.288 539.69 137.328C600.69 156.098 666.92 150.498 725.18 125.778C819.31 85.8283 948.63 24.5583 1054.56 34.5383C1110.89 39.8483 1166.14 64.8483 1203.32 107.538C1250.32 161.428 1264.41 237.938 1256.57 308.998C1251.19 357.101 1239.63 404.31 1222.18 449.458Z" fill="url(#paint0_linear_48_3)"/>
<path d="M1252.42 542.54C1250.33 542.537 1248.25 542.286 1246.22 541.79C1239.8 540.212 1234.23 536.245 1230.64 530.697C1227.05 525.149 1225.71 518.439 1226.9 511.938C1228.08 505.437 1231.71 499.634 1237.03 495.714C1242.35 491.795 1248.97 490.054 1255.53 490.848C1262.09 491.642 1268.1 494.91 1272.33 499.985C1276.57 505.06 1278.7 511.56 1278.31 518.157C1277.91 524.754 1275.01 530.951 1270.2 535.482C1265.39 540.014 1259.03 542.538 1252.42 542.54ZM1252.42 502.36C1248.98 502.373 1245.67 503.643 1243.1 505.93C1240.53 508.217 1238.89 511.364 1238.48 514.778C1238.08 518.191 1238.93 521.636 1240.89 524.464C1242.84 527.292 1245.76 529.307 1249.1 530.13C1251.03 530.595 1253.04 530.645 1255 530.277C1256.95 529.91 1258.8 529.133 1260.43 527.997C1262.06 526.862 1263.44 525.394 1264.46 523.69C1265.48 521.986 1266.14 520.085 1266.37 518.112C1266.61 516.138 1266.42 514.137 1265.83 512.24C1265.24 510.343 1264.25 508.593 1262.93 507.105C1261.61 505.617 1260 504.425 1258.18 503.607C1256.37 502.789 1254.41 502.364 1252.42 502.36Z" fill="#E7F6FF"/>
<path d="M1228.75 570.048C1230.22 563.967 1226.49 557.841 1220.4 556.367C1214.32 554.892 1208.2 558.627 1206.72 564.708C1205.25 570.789 1208.98 576.914 1215.06 578.389C1221.15 579.863 1227.27 576.129 1228.75 570.048Z" fill="#E7F6FF"/>
<path d="M59.1899 540.068C52.3214 539.918 45.7893 537.065 41.0117 532.128C36.234 527.191 33.5964 520.569 33.6715 513.7C33.7465 506.83 36.5282 500.267 41.4126 495.436C46.2969 490.604 52.8898 487.895 59.7599 487.895C66.6301 487.895 73.2229 490.604 78.1073 495.436C82.9917 500.267 85.7733 506.83 85.8484 513.7C85.9234 520.569 83.2858 527.191 78.5082 532.128C73.7305 537.065 67.1984 539.918 60.3299 540.068H59.1899ZM59.1899 499.898H58.5999C54.8903 499.979 51.3621 501.519 48.7813 504.185C46.2006 506.851 44.7756 510.427 44.8158 514.138C44.8559 517.848 46.358 521.392 48.9959 524.002C51.6337 526.611 55.1944 528.075 58.9049 528.075C62.6154 528.075 66.1761 526.611 68.814 524.002C71.4519 521.392 72.9539 517.848 72.9941 514.138C73.0343 510.427 71.6093 506.851 69.0285 504.185C66.4477 501.519 62.9195 499.979 59.2099 499.898H59.1899Z" fill="#E7F6FF"/>
<path d="M40.589 583.85C46.8406 583.58 51.6899 578.294 51.4202 572.042C51.1505 565.791 45.864 560.941 39.6124 561.211C33.3609 561.481 28.5116 566.767 28.7812 573.019C29.0509 579.27 34.3374 584.12 40.589 583.85Z" fill="#E7F6FF"/>
<path d="M713.08 118.257C706.854 118.262 700.832 116.039 696.104 111.989C691.375 107.939 688.253 102.33 687.302 96.1771C686.352 90.0244 687.635 83.7345 690.92 78.446C694.205 73.1575 699.275 69.2198 705.212 67.3456C711.148 65.4714 717.56 65.7846 723.286 68.2284C729.012 70.6723 733.674 75.0854 736.428 80.6688C739.182 86.2523 739.846 92.6373 738.3 98.668C736.754 104.699 733.1 109.977 728 113.547C723.626 116.607 718.418 118.251 713.08 118.257ZM713 78.0967C709.357 78.0929 705.854 79.4951 703.219 82.0111C700.585 84.527 699.023 87.9625 698.86 91.6015C698.696 95.2406 699.943 98.8024 702.341 101.545C704.739 104.287 708.102 105.998 711.731 106.321C715.359 106.644 718.972 105.555 721.817 103.279C724.662 101.004 726.519 97.7187 727.001 94.1081C727.483 90.4974 726.553 86.8399 724.405 83.898C722.257 80.9562 719.056 78.9568 715.47 78.3167C714.655 78.1713 713.828 78.0977 713 78.0967Z" fill="#E7F6FF"/>
<path d="M659.885 116.833C665.008 113.24 666.249 106.175 662.656 101.051C659.063 95.9282 651.998 94.6874 646.875 98.28C641.751 101.873 640.511 108.938 644.103 114.062C647.696 119.185 654.762 120.426 659.885 116.833Z" fill="#E7F6FF"/>
<path d="M1290 252.657C1290 241.662 1285.63 231.116 1277.86 223.341C1270.08 215.565 1259.54 211.197 1248.54 211.197C1247.62 211.197 1246.71 211.197 1245.81 211.287C1245.87 210.387 1245.9 209.477 1245.9 208.557C1245.9 202.665 1244.64 196.84 1242.21 191.472C1239.78 186.103 1236.24 181.314 1231.81 177.424C1227.38 173.534 1222.18 170.632 1216.54 168.912C1210.91 167.191 1204.97 166.692 1199.13 167.447C1193.28 168.203 1187.67 170.195 1182.65 173.291C1177.64 176.388 1173.34 180.518 1170.05 185.405C1166.76 190.293 1164.55 195.826 1163.56 201.635C1162.58 207.445 1162.84 213.398 1164.34 219.097C1159.33 215.464 1153.57 212.998 1147.48 211.881C1141.39 210.764 1135.13 211.025 1129.16 212.644C1123.18 214.262 1117.65 217.198 1112.95 221.236C1108.26 225.274 1104.54 230.311 1102.04 235.977C1099.55 241.644 1098.36 247.796 1098.56 253.983C1098.76 260.17 1100.34 266.233 1103.19 271.73C1106.03 277.226 1110.07 282.015 1115.01 285.745C1119.95 289.476 1125.66 292.053 1131.73 293.287C1134.21 299.855 1138.31 305.687 1143.66 310.236C1149 314.784 1155.42 317.901 1162.29 319.294C1169.17 320.687 1176.3 320.311 1182.99 318.201C1189.68 316.09 1195.73 312.314 1200.57 307.227C1205.52 310.963 1211.24 313.541 1217.32 314.771C1223.4 316.002 1229.67 315.854 1235.68 314.338C1241.7 312.822 1247.29 309.976 1252.06 306.012C1256.83 302.047 1260.64 297.063 1263.23 291.427C1271.1 288.444 1277.87 283.138 1282.66 276.213C1287.44 269.288 1290 261.073 1290 252.657Z" fill="white"/>
<path d="M195.45 152.998C195.455 147.551 194.387 142.156 192.307 137.122C190.226 132.088 187.174 127.513 183.324 123.659C179.475 119.805 174.904 116.747 169.872 114.661C164.841 112.574 159.447 111.499 154 111.498C153.08 111.498 152.17 111.498 151.27 111.588C151.33 110.688 151.36 109.778 151.36 108.858C151.359 102.966 150.102 97.1409 147.672 91.7724C145.243 86.4039 141.697 81.615 137.271 77.7249C132.845 73.8348 127.64 70.9328 122.004 69.2125C116.368 67.4921 110.43 66.993 104.586 67.7482C98.7423 68.5034 93.1264 70.4957 88.113 73.5922C83.0995 76.6888 78.8038 80.8185 75.5121 85.7059C72.2203 90.5934 70.0083 96.1265 69.0233 101.936C68.0383 107.746 68.3031 113.699 69.8 119.398C64.7892 115.764 59.0283 113.298 52.9401 112.182C46.8519 111.065 40.5909 111.326 34.6165 112.944C28.6422 114.563 23.1061 117.499 18.4146 121.537C13.7231 125.575 9.99518 130.612 7.50446 136.278C5.01375 141.945 3.82342 148.097 4.02085 154.284C4.21828 160.47 5.79845 166.534 8.64539 172.03C11.4923 177.527 15.5338 182.316 20.4732 186.046C25.4126 189.776 31.1246 192.354 37.19 193.588C39.6688 200.15 43.772 205.976 49.1155 210.52C54.459 215.065 60.8682 218.179 67.7431 219.572C74.618 220.965 81.7339 220.59 88.4248 218.484C95.1157 216.378 101.163 212.608 106 207.528C110.949 211.264 116.673 213.842 122.75 215.072C128.827 216.303 135.103 216.155 141.115 214.638C147.127 213.122 152.723 210.277 157.49 206.312C162.257 202.347 166.074 197.364 168.66 191.728C176.526 188.751 183.301 183.452 188.086 176.535C192.871 169.618 195.439 161.409 195.45 152.998Z" fill="white"/>
<path d="M958.18 742.93H361.68V729.93H958.18C959.904 729.93 961.557 730.615 962.776 731.833C963.995 733.052 964.68 734.706 964.68 736.43C964.68 738.154 963.995 739.807 962.776 741.026C961.557 742.245 959.904 742.93 958.18 742.93Z" fill="#426572"/>
<path d="M335 742.93H298.53C296.806 742.93 295.153 742.245 293.934 741.026C292.715 739.807 292.03 738.154 292.03 736.43C292.03 734.706 292.715 733.052 293.934 731.833C295.153 730.615 296.806 729.93 298.53 729.93H335C336.724 729.93 338.377 730.615 339.596 731.833C340.815 733.052 341.5 734.706 341.5 736.43C341.5 738.154 340.815 739.807 339.596 741.026C338.377 742.245 336.724 742.93 335 742.93Z" fill="#426572"/>
<path d="M274.86 742.93H263.24C261.516 742.93 259.863 742.245 258.644 741.026C257.425 739.807 256.74 738.154 256.74 736.43C256.74 734.706 257.425 733.052 258.644 731.833C259.863 730.615 261.516 729.93 263.24 729.93H274.86C276.584 729.93 278.237 730.615 279.456 731.833C280.675 733.052 281.36 734.706 281.36 736.43C281.36 738.154 280.675 739.807 279.456 741.026C278.237 742.245 276.584 742.93 274.86 742.93Z" fill="#426572"/>
<path d="M1167.34 742.93H984V729.93H1167.34C1169.06 729.93 1170.72 730.615 1171.94 731.833C1173.16 733.052 1173.84 734.706 1173.84 736.43C1173.84 738.154 1173.16 739.807 1171.94 741.026C1170.72 742.245 1169.06 742.93 1167.34 742.93Z" fill="#426572"/>
<path d="M230 742.93H46.6499V729.93H230C231.724 729.93 233.377 730.615 234.596 731.833C235.815 733.052 236.5 734.706 236.5 736.43C236.5 738.154 235.815 739.807 234.596 741.026C233.377 742.245 231.724 742.93 230 742.93Z" fill="#426572"/>
<path d="M288.1 235.559H955.92C967.973 235.559 979.533 240.345 988.058 248.866C996.583 257.388 1001.38 268.945 1001.38 280.999V713.259H242.64V280.999C242.645 268.945 247.437 257.388 255.962 248.866C264.487 240.345 276.047 235.559 288.1 235.559Z" fill="#EBF0F9"/>
<path d="M975.01 268.707H272.02V670.307H975.01V268.707Z" fill="#637F91"/>
<path d="M266.75 669.559H978C978 672.747 976.738 675.805 974.489 678.065C972.24 680.325 969.188 681.603 966 681.619H278.8C275.601 681.619 272.534 680.348 270.272 678.086C268.011 675.825 266.74 672.757 266.74 669.559H266.75Z" fill="white"/>
<g opacity="0.5">
<path opacity="0.5" d="M482.09 267.207L376.98 672.567H324.05L429.16 267.207H482.09Z" fill="#A7BCD5"/>
<path opacity="0.5" d="M617 267.207L511.9 672.567H400.9L506.01 267.207H617Z" fill="#A7BCD5"/>
</g>
<path d="M1007.38 719.259H236.64V261.619C236.651 253.119 240.032 244.971 246.042 238.96C252.052 232.95 260.201 229.569 268.7 229.559H975.32C983.82 229.569 991.968 232.95 997.978 238.96C1003.99 244.971 1007.37 253.119 1007.38 261.619V719.259ZM248.64 707.259H995.38V261.619C995.375 256.3 993.26 251.201 989.499 247.44C985.738 243.679 980.639 241.564 975.32 241.559H268.7C263.382 241.564 258.282 243.679 254.521 247.44C250.761 251.201 248.645 256.3 248.64 261.619V707.259Z" fill="#426572"/>
<path d="M146.95 698.949H1117.42V702.139C1117.42 712.483 1113.31 722.402 1106 729.716C1098.68 737.03 1088.76 741.139 1078.42 741.139H185.95C175.607 741.139 165.687 737.03 158.373 729.716C151.059 722.402 146.95 712.483 146.95 702.139V698.949Z" fill="#EBF0F9"/>
<path opacity="0.5" d="M1112.45 719.289C1110.32 724.837 1106.55 729.607 1101.65 732.971C1096.75 736.334 1090.94 738.133 1085 738.129H173.32C167.38 738.129 161.579 736.328 156.682 732.965C151.785 729.602 148.023 724.834 145.89 719.289H1112.45Z" fill="#A7BCD5"/>
<path d="M1073.89 745.628H181.43C169.499 745.614 158.061 740.869 149.625 732.433C141.188 723.996 136.443 712.558 136.43 700.628V691.438H1118.9V700.628C1118.89 712.56 1114.14 724 1105.7 732.436C1097.26 740.873 1085.82 745.617 1073.89 745.628ZM148.54 703.438C149.244 711.673 153.013 719.345 159.101 724.935C165.19 730.526 173.154 733.627 181.42 733.628H1073.89C1082.16 733.627 1090.12 730.526 1096.21 724.935C1102.3 719.345 1106.07 711.673 1106.77 703.438H148.54Z" fill="#426572"/>
<path d="M979.5 674.047H264.5V262.707H979.5V674.047ZM276.5 662.047H967.5V274.707H276.5V662.047Z" fill="#426572"/>
<path d="M867.55 139.789V668.049H388.34V139.789C388.358 137.408 389.312 135.129 390.996 133.445C392.68 131.761 394.959 130.807 397.34 130.789H858.51C859.054 130.789 859.596 130.84 860.13 130.939C862.202 131.322 864.077 132.415 865.431 134.03C866.785 135.645 867.534 137.682 867.55 139.789Z" fill="white"/>
<path d="M395.88 174.45H869.06V142.67L860.01 130.75H445.61H404.92L389.85 142.67V174.45H395.88Z" fill="#E2F2FF"/>
<path d="M875.06 674.049H383.85V139.789C383.866 135.816 385.451 132.01 388.261 129.2C391.071 126.39 394.877 124.805 398.85 124.789H860C863.973 124.805 867.78 126.39 870.589 129.2C873.399 132.01 874.984 135.816 875 139.789L875.06 674.049ZM395.85 662.049H863.06V139.789C863.04 139 862.717 138.248 862.159 137.69C861.601 137.132 860.849 136.809 860.06 136.789H398.89C398.101 136.809 397.349 137.132 396.791 137.69C396.233 138.248 395.91 139 395.89 139.789L395.85 662.049Z" fill="#426572"/>
<path d="M839.58 149.27H418.04C414.71 149.27 412.01 151.969 412.01 155.3C412.01 158.63 414.71 161.33 418.04 161.33H839.58C842.91 161.33 845.61 158.63 845.61 155.3C845.61 151.969 842.91 149.27 839.58 149.27Z" fill="#CADCE8"/>
<path d="M546.11 231.039H447.58V343.309H546.11V231.039Z" fill="#1677FF"/>
<path d="M789.04 231.039H555.41V343.309H789.04V231.039Z" fill="#1677FF"/>
<path d="M789.04 355.738H678.73V468.008H789.04V355.738Z" fill="#DDE4ED"/>
<path d="M669.43 355.738H448.82V468.008H669.43V355.738Z" fill="#DDE4ED"/>
<path d="M789.66 480.438H448.82V592.708H789.66V480.438Z" fill="#DDE4ED"/>
<path d="M792.67 607.797H705.27V619.797H792.67V607.797Z" fill="#DDE4ED"/>
<path d="M315.22 639.439H172.16C169.804 639.456 167.483 638.878 165.41 637.759C162.41 636.119 160.49 633.429 160.49 630.399L160.57 433.739C160.572 432.452 160.917 431.189 161.57 430.079C163.39 426.919 167.5 424.699 172.24 424.699H315.3C320.3 424.699 324.51 427.119 326.19 430.499C326.699 431.5 326.966 432.606 326.97 433.729L326.9 630.399C326.9 634.939 322.51 638.729 316.84 639.349C316.302 639.41 315.761 639.44 315.22 639.439Z" fill="white"/>
<path d="M319.11 637.93L176 637.9C173.645 637.917 171.323 637.339 169.25 636.22C166.25 634.58 164.33 631.89 164.33 628.86L164.41 432.2C164.412 430.913 164.757 429.65 165.41 428.54C167.23 425.38 171.34 423.16 176.08 423.16H178.03L178 616.8C178 619.8 179.94 622.52 182.92 624.16C184.993 625.279 187.315 625.857 189.67 625.84H330.79V628.84C330.79 633.38 326.4 637.17 320.73 637.79C320.193 637.867 319.652 637.914 319.11 637.93Z" fill="#D6DEE9"/>
<path d="M317.16 643.929H174.09C170.717 643.947 167.393 643.111 164.43 641.499C159.43 638.729 156.43 634.009 156.43 628.889L156.51 432.229C156.522 429.884 157.153 427.583 158.34 425.559C161.34 420.409 167.34 417.199 174.19 417.199H317.25C324.25 417.199 330.5 420.649 333.34 426.009L334.14 427.239V427.799C334.658 429.226 334.922 430.732 334.92 432.249L334.84 628.909C334.84 636.449 328.21 642.909 319.43 643.819C318.676 643.898 317.918 643.935 317.16 643.929ZM174.16 429.149C171.47 429.149 169.37 430.339 168.7 431.519C168.569 431.719 168.496 431.951 168.49 432.189L168.41 628.849C168.41 629.509 169.14 630.349 170.23 630.959C171.419 631.588 172.745 631.911 174.09 631.899H317.15C317.464 631.901 317.778 631.884 318.09 631.849C321.09 631.529 322.83 629.849 322.83 628.849L322.91 432.189C322.91 432.07 322.89 431.952 322.85 431.839L322.29 430.979C320.907 429.732 319.091 429.075 317.23 429.149H174.17H174.16Z" fill="#426572"/>
<path d="M300.66 509.797H203.64V521.797H300.66V509.797Z" fill="#426572"/>
<path d="M300.66 484.758H203.64V496.758H300.66V484.758Z" fill="#426572"/>
<path d="M300.66 538.168H203.64V550.168H300.66V538.168Z" fill="#426572"/>
<path opacity="0.2" d="M1076 284C1082.99 270.881 1087.28 256.495 1088.62 241.691C1089.96 226.886 1088.32 211.964 1083.8 197.803C1079.28 183.643 1071.96 170.532 1062.29 159.243C1052.62 147.955 1040.79 138.718 1027.49 132.077C1014.19 125.436 999.697 121.526 984.862 120.578C970.028 119.63 955.154 121.663 941.118 126.556C927.082 131.45 914.168 139.106 903.138 149.071C892.109 159.037 883.187 171.11 876.9 184.58C868.217 200.885 863.728 219.094 863.837 237.566C863.946 256.039 868.65 274.194 877.525 290.395C886.4 306.596 899.167 320.334 914.675 330.371C930.183 340.408 947.945 346.429 966.36 347.89C963.147 348.65 959.883 349.266 956.57 349.74C974.002 352.253 991.782 350.594 1008.45 344.899C1025.11 339.204 1040.19 329.636 1052.44 316.98C1062.24 307.517 1070.23 296.339 1076 284Z" fill="#606060"/>
<path d="M962.76 321.897C1024.23 321.897 1074.06 272.066 1074.06 210.597C1074.06 149.128 1024.23 99.2969 962.76 99.2969C901.291 99.2969 851.46 149.128 851.46 210.597C851.46 272.066 901.291 321.897 962.76 321.897Z" fill="#00B96B"/>
<path d="M1068.75 218.55C1068.75 234.508 1065.31 250.278 1058.68 264.792C1052.05 279.306 1042.37 292.224 1030.31 302.671C1018.25 313.118 1004.08 320.849 988.766 325.34C973.454 329.831 957.354 330.977 941.56 328.7C968.044 324.872 992.263 311.629 1009.78 291.399C1027.3 271.169 1036.94 245.305 1036.94 218.545C1036.94 191.785 1027.3 165.921 1009.78 145.691C992.263 125.461 968.044 112.219 941.56 108.39C957.356 106.112 973.457 107.257 988.772 111.748C1004.09 116.239 1018.26 123.97 1030.32 134.418C1042.38 144.866 1052.06 157.786 1058.69 172.302C1065.33 186.818 1068.76 202.591 1068.76 218.55H1068.75Z" fill="#00B95C"/>
<path d="M960.11 333.19C936.91 333.19 914.232 326.31 894.942 313.421C875.652 300.532 860.617 282.212 851.739 260.779C842.861 239.345 840.538 215.76 845.064 193.006C849.59 170.252 860.762 149.351 877.166 132.946C893.571 116.542 914.472 105.37 937.226 100.844C959.98 96.3177 983.565 98.6407 1005 107.519C1026.43 116.397 1044.75 131.432 1057.64 150.722C1070.53 170.011 1077.41 192.69 1077.41 215.89C1077.38 246.989 1065.01 276.805 1043.02 298.796C1021.03 320.786 991.209 333.155 960.11 333.19ZM960.11 110.6C939.284 110.6 918.925 116.776 901.609 128.346C884.292 139.917 870.796 156.362 862.826 175.603C854.856 194.844 852.77 216.017 856.833 236.443C860.896 256.869 870.925 275.632 885.652 290.358C900.378 305.085 919.141 315.114 939.567 319.177C959.993 323.24 981.166 321.154 1000.41 313.184C1019.65 305.214 1036.09 291.718 1047.66 274.401C1059.23 257.085 1065.41 236.726 1065.41 215.9C1065.38 187.982 1054.28 161.215 1034.54 141.474C1014.79 121.732 988.028 110.629 960.11 110.6Z" fill="#426572"/>
<path d="M1016.33 170.38C1013.93 169.038 1011.1 168.678 1008.44 169.375C1005.78 170.072 1003.49 171.773 1002.06 174.119L982.79 205.619L952 255.899L951.14 257.309L915.59 228.869L909.11 223.69C904.86 220.29 898.45 219.22 894.36 223.69C890.88 227.48 889.81 234.799 894.36 238.439L940.07 274.999L946.55 280.179C949.24 282.339 951.8 283.519 955.31 283.049C956.879 282.857 958.382 282.305 959.703 281.438C961.024 280.571 962.129 279.412 962.93 278.049L982.2 246.549L1013 196.279L1020.11 184.66C1022.92 180 1021.24 173 1016.33 170.38Z" fill="white"/>
</g>
</g>
<defs>
<filter id="filter0_d_48_3" x="0" y="0" width="1294" height="753.628" filterUnits="userSpaceOnUse" color-interpolation-filters="sRGB">
<feFlood flood-opacity="0" result="BackgroundImageFix"/>
<feColorMatrix in="SourceAlpha" type="matrix" values="0 0 0 0 0 0 0 0 0 0 0 0 0 0 0 0 0 0 127 0" result="hardAlpha"/>
<feOffset dy="4"/>
<feGaussianBlur stdDeviation="2"/>
<feComposite in2="hardAlpha" operator="out"/>
<feColorMatrix type="matrix" values="0 0 0 0 0 0 0 0 0 0 0 0 0 0 0 0 0 0 0.25 0"/>
<feBlend mode="normal" in2="BackgroundImageFix" result="effect1_dropShadow_48_3"/>
<feBlend mode="normal" in="SourceGraphic" in2="effect1_dropShadow_48_3" result="shape"/>
</filter>
<linearGradient id="paint0_linear_48_3" x1="5.31995" y1="371.188" x2="1258.6" y2="371.188" gradientUnits="userSpaceOnUse">
<stop stop-color="#C5E9FA"/>
<stop offset="1" stop-color="#C4F4EA"/>
</linearGradient>
</defs>
</svg>
